<svg xmlns="http://www.w3.org/2000/svg" viewBox="0 0 512 512" width="512" height="512"><rect x="0" y="0" width="512" height="512" rx="104" fill="#0F1B2D"/><g transform="translate(256,256) scale(0.16673) scale(1,-1) translate(-1352.50,-722.00)"><path d="M216 -19C296 -19 341 21 369 117L445 342H966L1042 114C1069 20 1114 -19 1199 -19C1287 -19 1350 40 1350 123C1350 153 1345 180 1331 219L935 1293C892 1411 822 1463 704 1463C590 1463 519 1409 477 1292L83 219C70 182 63 148 63 123C63 36 122 -19 216 -19ZM511 576 698 1167H705L896 576Z" fill="#0EA5E9"/><g transform="translate(1413.0,0)"><path d="M648 -24C1008 -24 1229 154 1229 436C1229 655 1097 778 791 839L639 870C468 904 399 959 399 1048C399 1154 498 1224 647 1224C771 1224 864 1179 912 1070C946 1008 988 981 1056 981C1133 981 1185 1030 1185 1102C1185 1128 1181 1149 1174 1169C1110 1357 911 1468 647 1468C326 1468 96 1293 96 1029C96 814 237 676 525 619L678 589C859 552 927 498 927 403C927 297 817 219 655 219C517 219 404 269 357 379C321 443 280 467 218 467C140 467 85 414 85 334C85 307 91 279 101 253C159 95 350 -24 648 -24Z" fill="#2F54EB"/></g></g></svg>
