<svg xmlns="http://www.w3.org/2000/svg" viewBox="0 0 512 512" width="512" height="512"><rect x="0" y="0" width="512" height="512" rx="104" fill="#0F1B2D"/><g transform="translate(256,256) scale(1.16) translate(-251,-257.5)"><path transform="translate(53.350,364.000) scale(0.300000,-0.300000)" d="M19 0 275 710H455L711 0H553L501 151H228L176 0ZM271 276H459L365 550Z" fill="#0EA5E9"/><path transform="translate(254.350,364.000) scale(0.300000,-0.300000)" d="M355 -16Q217 -16 138.5 52.0Q60 120 52 234L205 241Q214 178 251.0 144.0Q288 110 357 110Q413 110 444.5 130.5Q476 151 476 192Q476 217 464.0 235.5Q452 254 418.0 269.5Q384 285 318 300Q227 321 171.5 347.0Q116 373 91.0 412.5Q66 452 66 512Q66 575 97.5 623.5Q129 672 189.0 699.0Q249 726 332 726Q420 726 481.0 695.0Q542 664 576.0 610.0Q610 556 618 486L466 478Q460 533 425.5 566.5Q391 600 330 600Q278 600 248.5 577.0Q219 554 219 517Q219 491 232.0 473.5Q245 456 277.0 443.0Q309 430 367 418Q466 398 523.0 367.5Q580 337 604.5 295.0Q629 253 629 199Q629 133 595.5 84.5Q562 36 500.5 10.0Q439 -16 355 -16Z" fill="#2F54EB"/></g></svg>
